#!OML:ASF X:\für Bonn\!DataBase\2005_08_10_Bjorn_Final\c3d\bjorn.ASF
:FULLY-SPECIFIED
:DEGREES
110
root -0.355395 19.6996 4.36973 -193.815 -32.495 192.323
lowerback 17.4316 -2.27237 -5.29181
upperback 16.8782 -6.71446 -1.54529
thorax 9.17631 -5.11458 1.6414
lowerneck -6.19701 -5.47675 -0.762061
upperneck 10.1567 -9.74925 14.3832
head 4.84391 -4.35925 3.92069
rclavicle 7.79236e-014 -1.27222e-014
rhumerus -35.6246 -17.7569 -78.0803
rradius 19.505
rwrist 26.1157
rhand -3.39435 13.7115
rfingers 7.12502
rthumb 22.3355 -15.0175
lclavicle 7.79236e-014 -1.27222e-014
lhumerus 26.4347 -11.4653 71.1004
lradius 61.2101
lwrist -9.64155
lhand -33.3989 -17.7106
lfingers 7.12502
lthumb -6.59935 12.1666
rfemur -56.5724 -9.63452 19.7173
rtibia 102.387
rfoot 2.38917 8.23788
rtoes -19.1021
lfemur 1.91396 -4.95872 -9.76368
ltibia 14.909
lfoot 1.10677 -19.599
ltoes 9.679
111
root -0.38903 19.6924 4.3454 -193.187 -32.1095 191.93
lowerback 16.2846 -2.50244 -5.29691
upperback 16.4793 -6.77366 -1.62554
thorax 9.29902 -5.05435 1.49131
lowerneck -6.20248 -5.22803 -0.662
upperneck 11.2475 -9.53026 13.8246
head 5.12745 -4.22767 3.74244
rclavicle -5.56597e-014 -6.04305e-014
rhumerus -35.6195 -18.1986 -77.8832
rradius 19.4369
rwrist 26.1005
rhand -3.72341 13.656
rfingers 7.12502
rthumb 22.0195 -15.1105
lclavicle -5.56597e-014 -6.04305e-014
lhumerus 24.1505 -12.1385 70.1971
lradius 59.9719
lwrist -9.18968
lhand -32.4406 -17.0261
lfingers 7.12502
lthumb -5.67412 12.878
rfemur -54.9089 -9.78652 19.4645
rtibia 100.661
rfoot 2.4041 7.5517
rtoes -19.9504
lfemur 1.54116 -4.20844 -9.94979
ltibia 15.2072
lfoot 0.807149 -19.991
ltoes 9.23124
112
root -0.419839 19.6834 4.31791 -192.539 -31.7089 191.556
lowerback 15.1698 -2.72477 -5.31392
upperback 16.0262 -6.81897 -1.68772
thorax 9.35306 -4.9846 1.37418
lowerneck -6.0307 -4.98981 -0.573855
upperneck 12.1746 -9.30574 13.327
head 5.33626 -4.11364 3.59149
rclavicle 4.45278e-014 2.54444e-014
rhumerus -35.752 -18.7409 -77.5777
rradius 19.4242
rwrist 26.1868
rhand -4.0284 13.6597
rfingers 7.12502
rthumb 21.7267 -15.1411
lclavicle 4.45278e-014 2.54444e-014
lhumerus 21.8142 -13.0179 69.3393
lradius 58.6998
lwrist -8.7336
lhand -31.5727 -16.3326
lfingers 7.12502
lthumb -4.83616 13.5922
rfemur -53.2922 -9.89804 19.2732
rtibia 98.9083
rfoot 2.2812 6.82535
rtoes -21.4226
lfemur 1.08097 -3.50391 -10.1188
ltibia 15.6185
lfoot 0.404407 -20.3453
ltoes 8.75223
113
root -0.44663 19.673 4.2867 -191.906 -31.3095 191.215
lowerback 14.1518 -2.94352 -5.35794
upperback 15.4896 -6.85807 -1.70804
thorax 9.2743 -4.90985 1.33458
lowerneck -5.70885 -4.75444 -0.504017
upperneck 13.0182 -9.05941 12.7959
head 5.493 -4.00628 3.43894
rclavicle 6.99722e-014 4.45278e-014
rhumerus -36.104 -19.1398 -77.2068
rradius 19.5782
rwrist 26.0723
rhand -4.25707 13.7154
rfingers 7.12502
rthumb 21.5071 -15.1105
lclavicle 6.99722e-014 4.45278e-014
lhumerus 19.3247 -14.1006 68.6205
lradius 57.4248
lwrist -8.18938
lhand -30.6494 -15.7837
lfingers 7.12502
lthumb -3.94455 14.1595
rfemur -51.6779 -9.97063 19.1394
rtibia 97.1139
rfoot 2.02978 6.0426
rtoes -22.6617
lfemur 0.602987 -2.75118 -10.2451
ltibia 16.0563
lfoot -0.0065469 -20.7856
ltoes 8.23324
114
root -0.471885 19.6667 4.25268 -191.277 -30.9192 190.884
lowerback 13.1592 -3.16157 -5.40731
upperback 14.9343 -6.9027 -1.7207
thorax 9.17195 -4.83972 1.30862
lowerneck -5.25991 -4.52687 -0.427647
upperneck 13.7159 -8.79836 12.2697
head 5.58367 -3.90661 3.29118
rclavicle 4.29375e-014 7.31528e-014
rhumerus -36.5556 -19.3436 -76.901
rradius 19.9096
rwrist 25.7006
rhand -4.38674 13.6976
rfingers 7.12502
rthumb 21.3825 -15.1426
lclavicle 4.29375e-014 7.31528e-014
lhumerus 16.7837 -15.315 68.0283
lradius 56.1435
lwrist -7.71575
lhand -29.5577 -15.3016
lfingers 7.12502
lthumb -2.89029 14.6586
rfemur -50.04 -9.99342 19.0165
rtibia 95.2529
rfoot 1.70506 5.30294
rtoes -23.879
lfemur 0.126798 -1.93589 -10.3565
ltibia 16.4823
lfoot -0.375566 -21.3203
ltoes 7.69537
115
root -0.499061 19.6596 4.21457 -190.599 -30.4494 190.509
lowerback 12.0407 -3.32204 -5.48344
upperback 14.4716 -6.89308 -1.71732
thorax 9.25925 -4.761 1.28475
lowerneck -5.06099 -4.32711 -0.278977
upperneck 14.3465 -8.54712 11.6569
head 5.69407 -3.80285 3.0964
rclavicle -5.96354e-014 -1.36764e-013
rhumerus -36.8485 -19.563 -76.6401
rradius 20.3222
rwrist 25.3171
rhand -4.41742 13.7031
rfingers 7.12502
rthumb 21.3531 -15.1404
lclavicle -5.96354e-014 -1.36764e-013
lhumerus 14.4536 -16.6022 67.5459
lradius 54.803
lwrist -7.50188
lhand -28.4237 -14.7015
lfingers 7.12502
lthumb -1.79514 15.2707
rfemur -48.4217 -9.92591 18.8665
rtibia 93.3377
rfoot 1.27297 4.71276
rtoes -25.3627
lfemur -0.318893 -1.05309 -10.5117
ltibia 16.8579
lfoot -0.727563 -21.8202
ltoes 7.21084
